<svg xmlns="http://www.w3.org/2000/svg" version="1.1" xmlns:xlink="http://www.w3.org/1999/xlink" xmlns:svgjs="http://svgjs.dev/svgjs" width="1500" height="1500" viewBox="0 0 1500 1500"><rect width="1500" height="1500" fill="#ffffff"></rect><g transform="matrix(0.6666666666666666,0,0,0.6666666666666666,249.39393939393938,435.99032258064517)"><svg viewBox="0 0 396 248" data-background-color="#444444" preserveAspectRatio="xMidYMid meet" height="939" width="1500" xmlns="http://www.w3.org/2000/svg" xmlns:xlink="http://www.w3.org/1999/xlink"><g id="tight-bounds" transform="matrix(1,0,0,1,0.2400000000000091,0.4000000000000057)"><svg viewBox="0 0 395.52 247.2" height="247.2" width="395.52"><g><svg></svg></g><g><svg viewBox="0 0 395.52 247.2" height="247.2" width="395.52"><g transform="matrix(1,0,0,1,75.54432000000001,86.21770624039348)"><svg viewBox="0 0 244.43135999999996 74.76458751921302" height="74.76458751921302" width="244.43135999999996"><g><svg viewBox="0 0 244.43135999999996 74.76458751921302" height="74.76458751921302" width="244.43135999999996"><g><svg viewBox="0 0 244.43136 74.76458751921304" height="74.76458751921302" width="244.43135999999996"><g><svg viewBox="0 0 244.43136 74.76458751921304" height="74.76458751921304" width="244.43136"><g id="textblocktransform"><svg viewBox="0 0 244.43136 74.76458751921304" height="74.76458751921304" width="244.43136" id="textblock"><g><svg viewBox="0 0 244.43136 74.76458751921304" height="74.76458751921304" width="244.43136"><g transform="matrix(1,0,0,1,0,0)"><svg width="244.43136" viewBox="0.5 -38.9 162.64 49.75" height="74.76458751921304" data-palette-color="#ffffff"><path d="M17.1-27.8L31-27.8 31-19.6 29.1-19.6 22.55-2.25Q20.1 4.3 16.95 7.58 13.8 10.85 8.65 10.85L8.65 10.85Q6.55 10.85 4.4 10.43 2.25 10 0.5 9.25L0.5 9.25 0.5 0.2 7.4 0.2 7.4 0.7Q7.4 1.95 8.7 1.95L8.7 1.95Q9.85 1.95 10.45 0.85L10.45 0.85 2.55-19.6 0.65-19.6 0.65-27.8 15.5-27.8 15.5-19.6 13.8-19.6 16.4-11.8 18.8-19.6 17.1-19.6 17.1-27.8ZM53.95 0.7Q51.4 0.7 49.42-0.55 47.45-1.8 46.2-3.4L46.2-3.4 46.2 0 32.5 0 32.5-8.2 34.7-8.2 34.7-30.7 32.5-30.7 32.5-38.9 46.2-38.9 46.2-24.4Q47.45-26 49.42-27.25 51.4-28.5 53.95-28.5L53.95-28.5Q59.05-28.5 61.62-24.7 64.2-20.9 64.2-13.9L64.2-13.9Q64.2-6.9 61.62-3.1 59.05 0.7 53.95 0.7L53.95 0.7ZM49.1-8.2Q50.55-8.2 51.27-8.97 52-9.75 52-11.4L52-11.4 52-16.4Q52-18.05 51.27-18.82 50.55-19.6 49.1-19.6L49.1-19.6Q47.65-19.6 46.92-18.82 46.2-18.05 46.2-16.4L46.2-16.4 46.2-11.4Q46.2-9.75 46.92-8.97 47.65-8.2 49.1-8.2L49.1-8.2ZM96.6-8.2L98.8-8.2 98.8 0 83 0 83-8.2 85.1-8.2 85.1-16.4Q85.1-18.05 84.4-18.82 83.7-19.6 82.3-19.6L82.3-19.6Q79.3-19.6 79.3-16.4L79.3-16.4 79.3-8.2 81.4-8.2 81.4 0 65.6 0 65.6-8.2 67.8-8.2 67.8-30.7 65.6-30.7 65.6-38.9 79.3-38.9 79.3-23.9Q81.15-26.2 83.3-27.35 85.45-28.5 88.3-28.5L88.3-28.5Q92.45-28.5 94.52-25.9 96.6-23.3 96.6-18.75L96.6-18.75 96.6-8.2ZM115.29 0.7Q108.19 0.7 104.19-3.03 100.19-6.75 100.19-13.9L100.19-13.9Q100.19-21.05 104.19-24.78 108.19-28.5 115.29-28.5L115.29-28.5Q122.49-28.5 126.44-24.73 130.39-20.95 130.39-13.9L130.39-13.9Q130.39-6.75 126.39-3.03 122.39 0.7 115.29 0.7L115.29 0.7ZM115.29-8.2Q116.74-8.2 117.47-8.97 118.19-9.75 118.19-11.4L118.19-11.4 118.19-16.4Q118.19-18.05 117.47-18.82 116.74-19.6 115.29-19.6L115.29-19.6Q113.84-19.6 113.12-18.82 112.39-18.05 112.39-16.4L112.39-16.4 112.39-11.4Q112.39-9.75 113.12-8.97 113.84-8.2 115.29-8.2L115.29-8.2ZM154.89 0L139.99 0 133.69-19.6 131.59-19.6 131.59-27.8 147.04-27.8 147.04-19.6 144.94-19.6 147.59-9.7 148.09-9.7 150.74-19.6 148.64-19.6 148.64-27.8 163.14-27.8 163.14-19.6 161.04-19.6 154.89 0Z" opacity="1" transform="matrix(1,0,0,1,0,0)" fill="#000000" class="wordmark-text-0" data-fill-palette-color="primary" id="text-0"></path></svg></g></svg></g></svg></g></svg></g></svg></g></svg></g></svg></g><path d="M209.149 80.218L209.149 24.158 10.265 24.158 10.265 223.042 209.149 223.042 209.149 166.982 202.407 166.982 202.407 216.3 17.007 216.3 17.007 30.9 202.407 30.9 202.407 80.218Z" fill="#000000" stroke="transparent" data-fill-palette-color="tertiary"></path></svg></g><defs></defs></svg><rect width="395.52" height="247.2" fill="none" stroke="none" visibility="hidden"></rect></g></svg></g></svg>